<svg xmlns="http://www.w3.org/2000/svg" viewBox="0 0 758.96 379" width="758.96" height="379" style="--bg:#1a1b26;--fg:#a9b1d6;--line:#3d59a1;--accent:#7aa2f7;--muted:#565f89;background:var(--bg)">
<style>
  @import url('https://fonts.googleapis.com/css2?family=Inter:wght@400;500;600;700&amp;display=swap');
  @import url('https://fonts.googleapis.com/css2?family=JetBrains+Mono:wght@400;500&amp;display=swap');
  text { font-family: 'Inter', system-ui, sans-serif; }
  .mono { font-family: 'JetBrains Mono', 'SF Mono', 'Fira Code', ui-monospace, monospace; }
  svg {
    /* Derived from --bg and --fg (overridable via --line, --accent, etc.) */
    --_text:          var(--fg);
    --_text-sec:      var(--muted, color-mix(in srgb, var(--fg) 60%, var(--bg)));
    --_text-muted:    var(--muted, color-mix(in srgb, var(--fg) 40%, var(--bg)));
    --_text-faint:    color-mix(in srgb, var(--fg) 25%, var(--bg));
    --_line:          var(--line, color-mix(in srgb, var(--fg) 30%, var(--bg)));
    --_arrow:         var(--accent, color-mix(in srgb, var(--fg) 50%, var(--bg)));
    --_node-fill:     var(--surface, color-mix(in srgb, var(--fg) 3%, var(--bg)));
    --_node-stroke:   var(--border, color-mix(in srgb, var(--fg) 20%, var(--bg)));
    --_group-fill:    var(--bg);
    --_group-hdr:     color-mix(in srgb, var(--fg) 5%, var(--bg));
    --_inner-stroke:  color-mix(in srgb, var(--fg) 12%, var(--bg));
    --_key-badge:     color-mix(in srgb, var(--fg) 10%, var(--bg));
  }
</style>
<defs>
</defs>
<polyline points="180,100.5 292.32,100.5" fill="none" stroke="var(--_line)" stroke-width="0.75" />
<polyline points="432.32,100.5 505.64,100.5 505.64,137.5 648.96,137.5 648.96,199.5" fill="none" stroke="var(--_line)" stroke-width="0.75" />
<polyline points="432.32,100.5 648.96,100.5 648.96,94" fill="none" stroke="var(--_line)" stroke-width="0.75" />
<polyline points="578.96,226.5 505.64,226.5 505.64,174.5 362.32,174.5 362.32,181" fill="none" stroke="var(--_line)" stroke-width="0.75" />
<polyline points="578.96,226.5 505.64,226.5 505.64,263.5 362.32,263.5 362.32,285" fill="none" stroke="var(--_line)" stroke-width="0.75" />
<polyline points="432.32,208 505.64,208 505.64,226.5 578.96,226.5" fill="none" stroke="var(--_line)" stroke-width="0.75" />
<polyline points="432.32,312 505.64,312 505.64,315.5 648.96,315.5 648.96,253.5" fill="none" stroke="var(--_line)" stroke-width="0.75" />
<polyline points="578.96,67 505.64,67 505.64,63.5 362.32,63.5 362.32,73.5" fill="none" stroke="var(--_line)" stroke-width="0.75" />
<rect x="40" y="73.5" width="140" height="54" rx="0" ry="0" fill="var(--_node-fill)" stroke="var(--_node-stroke)" stroke-width="1" />
<rect x="40" y="73.5" width="140" height="32" rx="0" ry="0" fill="var(--_group-hdr)" stroke="var(--_node-stroke)" stroke-width="1" />
<text x="110" y="89.5" text-anchor="middle" dy="0.35em" font-size="13" font-weight="700" fill="var(--_text)">USER</text>
<line x1="40" y1="105.5" x2="180" y2="105.5" stroke="var(--_node-stroke)" stroke-width="0.75" />
<text x="110" y="116.5" text-anchor="middle" dy="0.35em" font-size="11" fill="var(--_text-faint)" font-style="italic">(no attributes)</text>
<rect x="292.32" y="73.5" width="140" height="54" rx="0" ry="0" fill="var(--_node-fill)" stroke="var(--_node-stroke)" stroke-width="1" />
<rect x="292.32" y="73.5" width="140" height="32" rx="0" ry="0" fill="var(--_group-hdr)" stroke="var(--_node-stroke)" stroke-width="1" />
<text x="362.32" y="89.5" text-anchor="middle" dy="0.35em" font-size="13" font-weight="700" fill="var(--_text)">PROJECT</text>
<line x1="292.32" y1="105.5" x2="432.32" y2="105.5" stroke="var(--_node-stroke)" stroke-width="0.75" />
<text x="362.32" y="116.5" text-anchor="middle" dy="0.35em" font-size="11" fill="var(--_text-faint)" font-style="italic">(no attributes)</text>
<rect x="578.96" y="199.5" width="140" height="54" rx="0" ry="0" fill="var(--_node-fill)" stroke="var(--_node-stroke)" stroke-width="1" />
<rect x="578.96" y="199.5" width="140" height="32" rx="0" ry="0" fill="var(--_group-hdr)" stroke="var(--_node-stroke)" stroke-width="1" />
<text x="648.96" y="215.5" text-anchor="middle" dy="0.35em" font-size="13" font-weight="700" fill="var(--_text)">REPOSITORY</text>
<line x1="578.96" y1="231.5" x2="718.96" y2="231.5" stroke="var(--_node-stroke)" stroke-width="0.75" />
<text x="648.96" y="242.5" text-anchor="middle" dy="0.35em" font-size="11" fill="var(--_text-faint)" font-style="italic">(no attributes)</text>
<rect x="578.96" y="40" width="140" height="54" rx="0" ry="0" fill="var(--_node-fill)" stroke="var(--_node-stroke)" stroke-width="1" />
<rect x="578.96" y="40" width="140" height="32" rx="0" ry="0" fill="var(--_group-hdr)" stroke="var(--_node-stroke)" stroke-width="1" />
<text x="648.96" y="56" text-anchor="middle" dy="0.35em" font-size="13" font-weight="700" fill="var(--_text)">FORK</text>
<line x1="578.96" y1="72" x2="718.96" y2="72" stroke="var(--_node-stroke)" stroke-width="0.75" />
<text x="648.96" y="83" text-anchor="middle" dy="0.35em" font-size="11" fill="var(--_text-faint)" font-style="italic">(no attributes)</text>
<rect x="292.32" y="181" width="140" height="54" rx="0" ry="0" fill="var(--_node-fill)" stroke="var(--_node-stroke)" stroke-width="1" />
<rect x="292.32" y="181" width="140" height="32" rx="0" ry="0" fill="var(--_group-hdr)" stroke="var(--_node-stroke)" stroke-width="1" />
<text x="362.32" y="197" text-anchor="middle" dy="0.35em" font-size="13" font-weight="700" fill="var(--_text)">COMMIT</text>
<line x1="292.32" y1="213" x2="432.32" y2="213" stroke="var(--_node-stroke)" stroke-width="0.75" />
<text x="362.32" y="224" text-anchor="middle" dy="0.35em" font-size="11" fill="var(--_text-faint)" font-style="italic">(no attributes)</text>
<rect x="292.32" y="285" width="140" height="54" rx="0" ry="0" fill="var(--_node-fill)" stroke="var(--_node-stroke)" stroke-width="1" />
<rect x="292.32" y="285" width="140" height="32" rx="0" ry="0" fill="var(--_group-hdr)" stroke="var(--_node-stroke)" stroke-width="1" />
<text x="362.32" y="301" text-anchor="middle" dy="0.35em" font-size="13" font-weight="700" fill="var(--_text)">PULL_REQUEST</text>
<line x1="292.32" y1="317" x2="432.32" y2="317" stroke="var(--_node-stroke)" stroke-width="0.75" />
<text x="362.32" y="328" text-anchor="middle" dy="0.35em" font-size="11" fill="var(--_text-faint)" font-style="italic">(no attributes)</text>
<line x1="184" y1="94.5" x2="184" y2="106.5" stroke="var(--_line)" stroke-width="1" />
<line x1="188" y1="94.5" x2="188" y2="106.5" stroke="var(--_line)" stroke-width="1" />
<line x1="288.32" y1="107.5" x2="276.32" y2="100.5" stroke="var(--_line)" stroke-width="1" />
<line x1="288.32" y1="100.5" x2="276.32" y2="100.5" stroke="var(--_line)" stroke-width="1" />
<line x1="288.32" y1="93.5" x2="276.32" y2="100.5" stroke="var(--_line)" stroke-width="1" />
<circle cx="272.32" cy="100.5" r="4" fill="var(--bg)" stroke="var(--_line)" stroke-width="1" />
<line x1="436.32" y1="94.5" x2="436.32" y2="106.5" stroke="var(--_line)" stroke-width="1" />
<line x1="440.32" y1="94.5" x2="440.32" y2="106.5" stroke="var(--_line)" stroke-width="1" />
<line x1="642.96" y1="195.5" x2="654.96" y2="195.5" stroke="var(--_line)" stroke-width="1" />
<line x1="642.96" y1="191.5" x2="654.96" y2="191.5" stroke="var(--_line)" stroke-width="1" />
<line x1="436.32" y1="94.5" x2="436.32" y2="106.5" stroke="var(--_line)" stroke-width="1" />
<line x1="440.32" y1="94.5" x2="440.32" y2="106.5" stroke="var(--_line)" stroke-width="1" />
<line x1="655.96" y1="98" x2="648.96" y2="110" stroke="var(--_line)" stroke-width="1" />
<line x1="648.96" y1="98" x2="648.96" y2="110" stroke="var(--_line)" stroke-width="1" />
<line x1="641.96" y1="98" x2="648.96" y2="110" stroke="var(--_line)" stroke-width="1" />
<circle cx="648.96" cy="114" r="4" fill="var(--bg)" stroke="var(--_line)" stroke-width="1" />
<line x1="574.96" y1="232.5" x2="574.96" y2="220.5" stroke="var(--_line)" stroke-width="1" />
<line x1="570.96" y1="232.5" x2="570.96" y2="220.5" stroke="var(--_line)" stroke-width="1" />
<line x1="355.32" y1="177" x2="362.32" y2="165" stroke="var(--_line)" stroke-width="1" />
<line x1="362.32" y1="177" x2="362.32" y2="165" stroke="var(--_line)" stroke-width="1" />
<line x1="369.32" y1="177" x2="362.32" y2="165" stroke="var(--_line)" stroke-width="1" />
<circle cx="362.32" cy="161" r="4" fill="var(--bg)" stroke="var(--_line)" stroke-width="1" />
<line x1="574.96" y1="232.5" x2="574.96" y2="220.5" stroke="var(--_line)" stroke-width="1" />
<line x1="570.96" y1="232.5" x2="570.96" y2="220.5" stroke="var(--_line)" stroke-width="1" />
<line x1="355.32" y1="281" x2="362.32" y2="269" stroke="var(--_line)" stroke-width="1" />
<line x1="362.32" y1="281" x2="362.32" y2="269" stroke="var(--_line)" stroke-width="1" />
<line x1="369.32" y1="281" x2="362.32" y2="269" stroke="var(--_line)" stroke-width="1" />
<circle cx="362.32" cy="265" r="4" fill="var(--bg)" stroke="var(--_line)" stroke-width="1" />
<line x1="436.32" y1="201" x2="448.32" y2="208" stroke="var(--_line)" stroke-width="1" />
<line x1="436.32" y1="208" x2="448.32" y2="208" stroke="var(--_line)" stroke-width="1" />
<line x1="436.32" y1="215" x2="448.32" y2="208" stroke="var(--_line)" stroke-width="1" />
<line x1="574.96" y1="232.5" x2="574.96" y2="220.5" stroke="var(--_line)" stroke-width="1" />
<line x1="570.96" y1="232.5" x2="570.96" y2="220.5" stroke="var(--_line)" stroke-width="1" />
<line x1="436.32" y1="305" x2="448.32" y2="312" stroke="var(--_line)" stroke-width="1" />
<line x1="436.32" y1="312" x2="448.32" y2="312" stroke="var(--_line)" stroke-width="1" />
<line x1="436.32" y1="319" x2="448.32" y2="312" stroke="var(--_line)" stroke-width="1" />
<line x1="654.96" y1="257.5" x2="642.96" y2="257.5" stroke="var(--_line)" stroke-width="1" />
<line x1="654.96" y1="261.5" x2="642.96" y2="261.5" stroke="var(--_line)" stroke-width="1" />
<line x1="574.96" y1="74" x2="562.96" y2="67" stroke="var(--_line)" stroke-width="1" />
<line x1="574.96" y1="67" x2="562.96" y2="67" stroke="var(--_line)" stroke-width="1" />
<line x1="574.96" y1="60" x2="562.96" y2="67" stroke="var(--_line)" stroke-width="1" />
<line x1="356.32" y1="69.5" x2="368.32" y2="69.5" stroke="var(--_line)" stroke-width="1" />
<line x1="356.32" y1="65.5" x2="368.32" y2="65.5" stroke="var(--_line)" stroke-width="1" />
<rect x="215" y="92" width="42.32" height="17" rx="2" ry="2" fill="var(--bg)" stroke="var(--_inner-stroke)" stroke-width="0.5" />
<text x="236.16" y="100.5" text-anchor="middle" dy="0.35em" font-size="11" font-weight="400" fill="var(--_text-muted)">&quot;owns&quot;</text>
<rect x="534.84" y="129" width="36.6" height="17" rx="2" ry="2" fill="var(--bg)" stroke="var(--_inner-stroke)" stroke-width="0.5" />
<text x="553.14" y="137.5" text-anchor="middle" dy="0.35em" font-size="11" font-weight="400" fill="var(--_text-muted)">&quot;has&quot;</text>
<rect x="508.43" y="92" width="70.92" height="17" rx="2" ry="2" fill="var(--bg)" stroke="var(--_inner-stroke)" stroke-width="0.5" />
<text x="543.89" y="100.5" text-anchor="middle" dy="0.35em" font-size="11" font-weight="400" fill="var(--_text-muted)">&quot;forked_to&quot;</text>
<rect x="460.78999999999996" y="166" width="65.2" height="17" rx="2" ry="2" fill="var(--bg)" stroke="var(--_inner-stroke)" stroke-width="0.5" />
<text x="493.39" y="174.5" text-anchor="middle" dy="0.35em" font-size="11" font-weight="400" fill="var(--_text-muted)">&quot;contains&quot;</text>
<rect x="445.78999999999996" y="255" width="65.2" height="17" rx="2" ry="2" fill="var(--bg)" stroke="var(--_inner-stroke)" stroke-width="0.5" />
<text x="478.39" y="263.5" text-anchor="middle" dy="0.35em" font-size="11" font-weight="400" fill="var(--_text-muted)">&quot;received&quot;</text>
<rect x="467.32" y="208.75000000000003" width="76.64" height="17" rx="2" ry="2" fill="var(--bg)" stroke="var(--_inner-stroke)" stroke-width="0.5" />
<text x="505.64" y="217.25000000000003" text-anchor="middle" dy="0.35em" font-size="11" font-weight="400" fill="var(--_text-muted)">&quot;belongs_to&quot;</text>
<rect x="543.01" y="307" width="53.760000000000005" height="17" rx="2" ry="2" fill="var(--bg)" stroke="var(--_inner-stroke)" stroke-width="0.5" />
<text x="569.89" y="315.5" text-anchor="middle" dy="0.35em" font-size="11" font-weight="400" fill="var(--_text-muted)">&quot;target&quot;</text>
<rect x="440.51" y="55" width="53.760000000000005" height="17" rx="2" ry="2" fill="var(--bg)" stroke="var(--_inner-stroke)" stroke-width="0.5" />
<text x="467.39" y="63.5" text-anchor="middle" dy="0.35em" font-size="11" font-weight="400" fill="var(--_text-muted)">&quot;forked&quot;</text>
</svg>